<svg width="120" height="120" viewBox="0 0 120 120" xmlns="http://www.w3.org/2000/svg"><defs><linearGradient id="g" x1="0" y1="0" x2="1" y2="1">
<stop offset="0" stop-color="#E3C892"/><stop offset="0.5" stop-color="#C9A96E"/><stop offset="1" stop-color="#9E7340"/>
</linearGradient></defs><circle cx="60" cy="60" r="50" fill="none" stroke="url(#g)" stroke-width="2"/><polygon points="59.1,45.0 60.0,34.0 60.9,45.0" fill="url(#g)"/><polygon points="66.7,46.6 73.0,37.5 68.3,47.5" fill="url(#g)"/><polygon points="72.5,51.7 82.5,47.0 73.4,53.3" fill="url(#g)"/><polygon points="75.0,59.1 86.0,60.0 75.0,60.9" fill="url(#g)"/><polygon points="73.4,66.7 82.5,73.0 72.5,68.3" fill="url(#g)"/><polygon points="68.3,72.5 73.0,82.5 66.7,73.4" fill="url(#g)"/><polygon points="60.9,75.0 60.0,86.0 59.1,75.0" fill="url(#g)"/><polygon points="53.3,73.4 47.0,82.5 51.7,72.5" fill="url(#g)"/><polygon points="47.5,68.3 37.5,73.0 46.6,66.7" fill="url(#g)"/><polygon points="45.0,60.9 34.0,60.0 45.0,59.1" fill="url(#g)"/><polygon points="46.6,53.3 37.5,47.0 47.5,51.7" fill="url(#g)"/><polygon points="51.7,47.5 47.0,37.5 53.3,46.6" fill="url(#g)"/><circle cx="60" cy="60" r="9.5" fill="url(#g)"/></svg>