<svg width="120" height="120" viewBox="0 0 120 120" xmlns="http://www.w3.org/2000/svg"><defs><linearGradient id="g" x1="0" y1="0" x2="1" y2="1">
<stop offset="0" stop-color="#E3C892"/><stop offset="0.5" stop-color="#C9A96E"/><stop offset="1" stop-color="#9E7340"/>
</linearGradient></defs><polygon points="59.1,43.0 60.0,18.0 60.9,43.0" fill="url(#g)"/><polygon points="65.7,44.0 72.6,29.5 67.3,44.7" fill="url(#g)"/><polygon points="71.4,47.4 89.7,30.3 72.6,48.6" fill="url(#g)"/><polygon points="75.3,52.7 90.5,47.4 76.0,54.3" fill="url(#g)"/><polygon points="77.0,59.1 102.0,60.0 77.0,60.9" fill="url(#g)"/><polygon points="76.0,65.7 90.5,72.6 75.3,67.3" fill="url(#g)"/><polygon points="72.6,71.4 89.7,89.7 71.4,72.6" fill="url(#g)"/><polygon points="67.3,75.3 72.6,90.5 65.7,76.0" fill="url(#g)"/><polygon points="60.9,77.0 60.0,102.0 59.1,77.0" fill="url(#g)"/><polygon points="54.3,76.0 47.4,90.5 52.7,75.3" fill="url(#g)"/><polygon points="48.6,72.6 30.3,89.7 47.4,71.4" fill="url(#g)"/><polygon points="44.7,67.3 29.5,72.6 44.0,65.7" fill="url(#g)"/><polygon points="43.0,60.9 18.0,60.0 43.0,59.1" fill="url(#g)"/><polygon points="44.0,54.3 29.5,47.4 44.7,52.7" fill="url(#g)"/><polygon points="47.4,48.6 30.3,30.3 48.6,47.4" fill="url(#g)"/><polygon points="52.7,44.7 47.4,29.5 54.3,44.0" fill="url(#g)"/><circle cx="60" cy="60" r="13.5" fill="url(#g)"/></svg>