<svg width="120" height="120" viewBox="0 0 120 120" xmlns="http://www.w3.org/2000/svg">
  <defs>
    <linearGradient id="sunova-favicon-gold" x1="0" y1="0" x2="1" y2="1">
      <stop offset="0" stop-color="#D9BC86"/>
      <stop offset="0.55" stop-color="#C9A96E"/>
      <stop offset="1" stop-color="#9E7340"/>
    </linearGradient>
  </defs>
  <rect x="0" y="0" width="120" height="120" rx="28" fill="#241A12"/>
  <circle cx="60" cy="60" r="17" fill="url(#sunova-favicon-gold)"/>
  <line x1="85.0" y1="60.0" x2="95.0" y2="60.0" stroke="url(#sunova-favicon-gold)" stroke-width="2.8" stroke-linecap="round"/>
  <line x1="81.7" y1="72.5" x2="90.3" y2="77.5" stroke="url(#sunova-favicon-gold)" stroke-width="2.8" stroke-linecap="round"/>
  <line x1="72.5" y1="81.7" x2="77.5" y2="90.3" stroke="url(#sunova-favicon-gold)" stroke-width="2.8" stroke-linecap="round"/>
  <line x1="60.0" y1="85.0" x2="60.0" y2="95.0" stroke="url(#sunova-favicon-gold)" stroke-width="2.8" stroke-linecap="round"/>
  <line x1="47.5" y1="81.7" x2="42.5" y2="90.3" stroke="url(#sunova-favicon-gold)" stroke-width="2.8" stroke-linecap="round"/>
  <line x1="38.3" y1="72.5" x2="29.7" y2="77.5" stroke="url(#sunova-favicon-gold)" stroke-width="2.8" stroke-linecap="round"/>
  <line x1="35.0" y1="60.0" x2="25.0" y2="60.0" stroke="url(#sunova-favicon-gold)" stroke-width="2.8" stroke-linecap="round"/>
  <line x1="38.3" y1="47.5" x2="29.7" y2="42.5" stroke="url(#sunova-favicon-gold)" stroke-width="2.8" stroke-linecap="round"/>
  <line x1="47.5" y1="38.3" x2="42.5" y2="29.7" stroke="url(#sunova-favicon-gold)" stroke-width="2.8" stroke-linecap="round"/>
  <line x1="60.0" y1="35.0" x2="60.0" y2="25.0" stroke="url(#sunova-favicon-gold)" stroke-width="2.8" stroke-linecap="round"/>
  <line x1="72.5" y1="38.3" x2="77.5" y2="29.7" stroke="url(#sunova-favicon-gold)" stroke-width="2.8" stroke-linecap="round"/>
  <line x1="81.7" y1="47.5" x2="90.3" y2="42.5" stroke="url(#sunova-favicon-gold)" stroke-width="2.8" stroke-linecap="round"/>
</svg>
